<svg width="228" height="56" viewBox="0 0 228 56" fill="none" xmlns="http://www.w3.org/2000/svg">
<path d="M14.5862 27.4576C14.6988 27.4351 14.7663 27.3451 14.7438 27.2325C14.7213 27.12 14.6313 27.0524 14.5187 27.0749C11.3223 27.5701 9.43151 25.3417 9.409 25.3192C9.34147 25.2291 9.20641 25.2291 9.13888 25.2967C9.04884 25.3642 9.04885 25.4767 9.11638 25.5668C9.11638 25.5668 9.16139 25.6118 9.20641 25.6793C9.02633 25.8594 8.64367 26.1295 8.21599 26.0395C8.10344 26.017 8.0134 26.0845 7.99089 26.1745C7.96838 26.2871 8.03591 26.3771 8.12594 26.3996C8.21598 26.4222 8.32853 26.4222 8.41857 26.4222C8.91378 26.4222 9.29646 26.1295 9.49905 25.9269C9.58909 25.9945 9.67911 26.0845 9.76915 26.1745C9.45402 26.4672 8.68869 27.0975 7.90085 26.8273C7.81081 26.7823 7.69827 26.8498 7.65325 26.9399C7.60823 27.0524 7.67576 27.1425 7.76579 27.1875C7.94587 27.255 8.12594 27.2775 8.30602 27.2775C9.11637 27.2775 9.81418 26.6698 10.0843 26.3996C10.2419 26.5122 10.3994 26.6247 10.602 26.7148C10.3319 26.9849 9.74664 27.5026 9.09386 27.5251C8.98131 27.5251 8.89128 27.6152 8.91379 27.7277C8.91379 27.8403 9.00383 27.9078 9.11638 27.9078C9.99426 27.8853 10.7146 27.1875 10.9622 26.8949C11.1197 26.9624 11.2773 27.0524 11.4574 27.0975C11.2773 27.3226 10.9847 27.6377 10.6921 27.7052C10.5795 27.7277 10.512 27.8403 10.5345 27.9303C10.557 28.0203 10.6245 28.0879 10.7146 28.0879C10.7371 28.0879 10.7371 28.0879 10.7596 28.0879C11.2548 27.9978 11.66 27.4801 11.8401 27.2325C12.3578 27.3901 12.9205 27.4801 13.5733 27.4801C13.911 27.5251 14.2486 27.5026 14.5862 27.4576Z" fill="#FDF2DB"/>
<path d="M26.989 26.8499C26.2237 27.12 25.4359 26.4898 25.1207 26.1971C25.2333 26.1071 25.3233 26.0396 25.3908 25.9495C25.5934 26.1521 25.9761 26.4447 26.4713 26.4447C26.5613 26.4447 26.6514 26.4447 26.7639 26.4222C26.8765 26.3997 26.944 26.2872 26.899 26.1971C26.8765 26.0846 26.7639 26.0171 26.6739 26.0621C26.2237 26.1746 25.8635 25.882 25.6835 25.7019C25.7285 25.6344 25.7735 25.6119 25.7735 25.5894C25.841 25.4993 25.841 25.3868 25.751 25.3193C25.661 25.2517 25.5484 25.2517 25.4809 25.3418C25.4584 25.3643 23.5676 27.5927 20.3712 27.0975C20.2586 27.075 20.1686 27.1651 20.1461 27.2551C20.1236 27.3676 20.2136 27.4577 20.3036 27.4802C20.6638 27.5252 20.9789 27.5477 21.2941 27.5477C21.9469 27.5477 22.5096 27.4577 23.0273 27.3001C23.2074 27.5477 23.6126 28.0429 24.1078 28.1555C24.1303 28.1555 24.1303 28.1555 24.1528 28.1555C24.2428 28.1555 24.3329 28.088 24.3329 27.9979C24.3554 27.8854 24.2879 27.7953 24.1753 27.7728C23.8827 27.7053 23.5901 27.4127 23.41 27.1651C23.5901 27.0975 23.7476 27.03 23.9052 26.9625C24.1753 27.2551 24.8956 27.9529 25.751 27.9754C25.8635 27.9754 25.9311 27.8854 25.9536 27.7953C25.9536 27.6828 25.8636 27.5927 25.7735 27.5927C25.1207 27.5702 24.5355 27.0525 24.2654 26.7824C24.4454 26.6698 24.6255 26.5573 24.7831 26.4672C25.0532 26.7374 25.751 27.3451 26.5614 27.3451C26.7414 27.3451 26.9215 27.3226 27.1016 27.2551C27.2141 27.2101 27.2591 27.0975 27.2141 27.0075C27.1916 26.8499 27.0791 26.8049 26.989 26.8499Z" fill="#FDF2DB"/>
<path d="M20.4839 36.1689C20.4839 36.1689 19.8536 36.5741 19.1333 36.1689C18.368 35.7187 17.6477 35.8763 17.4226 35.9213C17.22 35.8763 16.4772 35.7187 15.7118 36.1689C15.014 36.5741 14.4063 36.1915 14.3613 36.1689C14.2712 36.1014 14.1587 36.1239 14.0911 36.214C14.0236 36.304 14.0461 36.4165 14.1362 36.4841C14.1587 36.5066 14.5188 36.7317 15.0141 36.7317C15.2617 36.7317 15.5768 36.6641 15.8694 36.4841C16.6122 36.0564 17.31 36.2815 17.31 36.2815H17.3326C17.3326 36.2815 17.3325 36.2815 17.3551 36.2815H17.3776H17.4001H17.4226H17.4451C17.4451 36.2815 18.1429 36.0564 18.8857 36.4841C19.2009 36.6641 19.4935 36.7317 19.7411 36.7317C20.2363 36.7317 20.5965 36.5066 20.619 36.4841C20.709 36.4165 20.7315 36.304 20.664 36.214C20.709 36.1464 20.574 36.1239 20.4839 36.1689Z" fill="#FDF2DB"/>
<path d="M19.7635 37.3844C19.741 37.3844 18.5705 37.587 17.4901 37.452H17.4675H17.445C16.3646 37.6095 15.1715 37.3844 15.1715 37.3844C15.059 37.3619 14.969 37.4295 14.9465 37.542C14.9239 37.6546 14.9915 37.7446 15.104 37.7671C15.149 37.7671 15.8018 37.8797 16.5897 37.8797C16.8823 37.8797 17.1749 37.8571 17.4675 37.8346C17.7602 37.8797 18.0753 37.8797 18.3454 37.8797C19.1333 37.8797 19.786 37.7671 19.8311 37.7671C19.9436 37.7446 20.0111 37.6546 19.9886 37.542C19.9661 37.4295 19.8536 37.3619 19.7635 37.3844Z" fill="#FDF2DB"/>
<path d="M29.7804 15.9327C28.6099 14.7621 27.3043 13.7717 25.8637 12.9839C27.4619 9.38232 27.1918 5.26303 25.0984 1.93159C24.6707 1.25629 24.198 0.626024 23.6577 0.0632802C23.5902 -0.00424901 23.5002 -0.0267533 23.4101 0.040776C23.3426 0.0857955 23.2976 0.198344 23.3201 0.265873C24.7157 4.025 24.0179 8.30185 21.4968 11.4082C21.1592 11.8359 20.7765 12.2411 20.3713 12.6237C19.8761 13.0739 19.3584 13.4791 18.7956 13.8392L18.6831 13.9068C16.2745 15.3924 13.4383 15.9552 10.6471 15.46C9.99432 15.3474 9.36405 15.1673 8.73378 14.9422C8.21605 14.7622 7.69833 14.5145 7.22562 14.2669C6.16767 13.7042 5.19974 12.9614 4.36688 12.0835C4.29935 12.016 4.20932 11.9934 4.11928 12.061C4.05175 12.106 4.00673 12.2185 4.02924 12.2861C4.29935 13.0289 4.65951 13.7267 5.0872 14.402C5.28978 14.7171 5.49238 15.0323 5.73999 15.3249C5.5374 15.5275 5.3123 15.7076 5.10972 15.9101C1.82329 19.1966 0 23.586 0 28.2455V49.2021C0 50.3951 0.472702 51.5206 1.30556 52.3534C2.13842 53.1863 3.26391 53.659 4.45693 53.659C7.00053 53.659 9.40907 52.3084 10.7597 50.1475C10.7822 50.1024 10.8272 50.0574 10.8497 50.0124C11.2999 50.6427 12.6055 52.2409 14.2937 52.2859C14.3162 52.2859 14.3387 52.2859 14.3387 52.2859C14.8564 52.2859 15.3742 52.1283 15.8694 51.8357C16.252 51.9708 16.6572 52.1058 17.0849 52.2184L16.252 53.2313C16.207 53.2763 16.1845 53.3664 16.2295 53.4339L17.265 55.8875C17.2875 55.955 17.355 56 17.4451 56C17.5351 56 17.6026 55.955 17.6251 55.8875L18.6606 53.4339C18.6831 53.3664 18.6831 53.2988 18.6381 53.2313L17.8052 52.2184C18.2329 52.1058 18.6381 51.9708 19.0207 51.8357C19.516 52.1283 20.0337 52.2859 20.5514 52.2859C20.5739 52.2859 20.5964 52.2859 20.5964 52.2859C22.2846 52.2634 23.5902 50.6652 24.0404 50.0349C24.0629 50.0799 24.0854 50.125 24.1305 50.17C25.4585 52.3534 27.8896 53.6815 30.4332 53.6815C31.6262 53.6815 32.7517 53.2088 33.5845 52.3759C34.4174 51.5431 34.8901 50.4176 34.8901 49.2246V28.268C34.8901 23.6085 33.0668 19.2416 29.7804 15.9327ZM4.79457 13.0514C5.46987 13.6592 6.2352 14.1994 7.04555 14.6271C7.54076 14.8972 8.081 15.1448 8.62123 15.3249C9.2515 15.55 9.92679 15.7301 10.6021 15.8651C13.4833 16.3828 16.4321 15.7976 18.9082 14.2669L19.0207 14.1994C19.606 13.8392 20.1462 13.4116 20.6414 12.9614C21.0691 12.5787 21.4518 12.151 21.8119 11.7008C24.2205 8.72954 25.0308 4.74532 23.9954 1.09874C24.2655 1.43638 24.5356 1.81904 24.7607 2.20171C26.8091 5.48813 27.0567 9.53989 25.4135 13.0514C25.2109 13.4791 24.9858 13.9068 24.7382 14.3119C24.4906 14.7171 24.198 15.1223 23.8828 15.4825C23.5677 15.8651 23.2075 16.2478 22.8474 16.5854C22.4647 16.9456 22.037 17.2832 21.6094 17.5759C21.4518 17.6884 21.2942 17.7785 21.1366 17.891C18.0528 19.8043 14.3387 20.1645 10.9397 18.8364C10.4445 18.6338 9.94931 18.4087 9.49912 18.1386C9.04892 17.891 8.62123 17.5984 8.21606 17.2832C7.83339 16.9906 7.47323 16.6755 7.11307 16.3378C6.77543 16.0002 6.46029 15.64 6.16766 15.2799C5.89755 14.9422 5.67246 14.6046 5.44736 14.2444C5.19975 13.8392 4.97465 13.4341 4.79457 13.0514ZM23.2751 48.1441C23.0275 48.5268 21.7894 50.2825 19.0658 51.3855C18.5705 51.0479 18.0753 50.5301 17.6251 49.8323C17.5801 49.7873 17.5351 49.7423 17.4676 49.7423C17.4 49.7423 17.3325 49.7648 17.31 49.8323C16.8373 50.5301 16.3646 51.0479 15.8694 51.3855C13.1007 50.26 11.8626 48.4818 11.6375 48.1441C12.0427 46.5459 11.9077 44.8577 11.2549 43.3495C12.0652 42.0665 12.1553 40.5808 12.1553 39.883C13.5734 40.9635 15.3066 41.9089 17.4225 42.4266C17.445 42.4266 17.445 42.4266 17.4676 42.4266C17.4901 42.4266 17.4901 42.4266 17.5126 42.4266C19.6285 41.8864 21.3618 40.9635 22.7799 39.883C22.7799 40.5808 22.8474 42.0665 23.6803 43.327C22.9825 44.8577 22.8474 46.5459 23.2751 48.1441ZM11.7276 39.5454C11.7276 39.6579 11.8626 41.4362 11.0523 42.8993C10.8047 42.4266 10.512 41.9539 10.1519 41.5487C7.67582 38.5549 7.38319 34.0755 7.38319 34.0305V33.9179C7.58578 34.3231 7.81087 34.7508 8.08099 35.201C8.86883 36.5741 10.0619 38.1723 11.7276 39.5454ZM23.8378 42.9218C23.0275 41.4812 23.14 39.748 23.14 39.5679C24.8057 38.1948 25.9988 36.5966 26.8316 35.201C27.0792 34.7733 27.3043 34.3681 27.5069 33.963V34.0305C27.5069 34.0755 27.2143 38.5549 24.7382 41.5487C24.4006 41.9764 24.0854 42.4266 23.8378 42.9218ZM27.6645 32.7249C27.6195 32.7474 27.5969 32.815 27.5969 32.86V32.905C27.3043 33.5578 26.9667 34.2556 26.539 34.9759C25.0308 37.5195 22.2621 40.7834 17.4901 41.9989C12.718 40.7834 9.9268 37.5195 8.44115 34.9759C8.01347 34.2331 7.65332 33.5128 7.36069 32.86C7.36069 32.815 7.33817 32.77 7.29315 32.7249C6.55033 30.9917 6.30273 29.7086 6.30273 29.6861C6.30273 29.6636 6.28021 29.6411 6.28021 29.6186V28.358C6.28021 26.5122 6.73042 24.7115 7.58579 23.1133C8.44116 22.9557 10.4895 22.7081 12.8756 23.1808C15.6668 23.7435 17.5351 26.3997 17.1074 29.2134L16.4546 33.4903C16.4321 33.5803 16.4996 33.6703 16.5672 33.6928C16.5897 33.6928 16.9949 33.8504 17.5126 33.8504C17.7827 33.8504 18.0753 33.8054 18.3679 33.6703C18.458 33.6253 18.503 33.5128 18.458 33.4227C18.413 33.3327 18.3004 33.2877 18.2104 33.3327C17.6927 33.5578 17.1074 33.4452 16.8598 33.3777L17.4901 29.2584C17.9403 26.2421 15.9594 23.3834 12.9431 22.7756C10.7597 22.3254 8.84633 22.5055 7.83339 22.6406C8.62123 21.29 9.67919 20.097 10.9848 19.1515C12.3578 19.6693 13.776 19.9394 15.1941 19.9394C17.355 19.9394 19.4934 19.3316 21.4068 18.1386C21.5418 18.0486 21.6769 17.9585 21.8119 17.8685C25.9537 19.6243 28.7449 23.8111 28.7449 28.313V29.5961C28.7449 29.6186 28.7224 29.6411 28.7224 29.6411C28.6549 29.7311 28.3848 30.9917 27.6645 32.7249ZM6.97802 16.7205C7.22563 16.9681 7.51825 17.1932 7.78837 17.4183C4.70453 20.187 2.92627 24.1037 2.92627 28.268V49.2471C2.92627 49.2696 2.92627 49.3146 2.92627 49.3371C2.92627 49.3596 2.92627 49.4046 2.92627 49.4272C2.97129 50.4851 3.84916 51.318 4.90712 51.318C4.90712 51.318 4.90712 51.318 4.92963 51.318C5.1097 51.2955 5.28979 51.273 5.46987 51.2504C5.98759 51.1379 6.4828 50.9578 6.9555 50.7102C7.72083 50.2825 8.35111 49.6748 8.80131 48.9319C9.9493 47.0861 9.76923 44.7001 8.37363 43.0119C7.51826 41.9764 6.79795 40.7159 6.2352 39.2528V36.6191C6.64038 38.3524 7.42821 40.6709 8.95888 42.5392C10.5571 44.475 10.7597 47.1987 9.45409 49.3371C8.39614 51.0479 6.4828 52.1283 4.47943 52.1283C3.78163 52.1283 3.12886 51.8582 2.63364 51.363C2.13843 50.8678 1.86831 50.215 1.86831 49.5172V28.268C1.86831 24.1037 3.48901 20.187 6.43778 17.2382C6.59535 17.0581 6.79794 16.9006 6.97802 16.7205ZM9.07142 18.3187C6.10014 20.8623 4.3894 24.5089 4.3894 28.4031V49.3371C4.3894 49.5847 4.50195 49.8098 4.68202 49.9674C4.81708 50.0799 4.99716 50.1475 5.17724 50.1475C5.24477 50.1475 5.28979 50.1475 5.35732 50.125C6.37026 49.8774 7.27065 49.2471 7.81088 48.3692C8.68876 46.9286 8.55371 45.1053 7.47324 43.7997C7.02304 43.2595 6.59535 42.6517 6.21268 41.9989V40.2882C6.73041 41.4137 7.33817 42.4266 8.05849 43.282C9.34154 44.8352 9.49911 47.0186 8.46366 48.7519C8.03597 49.4272 7.45073 49.9899 6.75292 50.3951C6.32524 50.6427 5.85253 50.8003 5.37982 50.9128C5.22225 50.9353 5.06469 50.9578 4.90712 50.9803C4.05175 50.9803 3.37646 50.305 3.33144 49.4722V28.313C3.33144 24.2613 5.06469 20.3896 8.12601 17.7109C8.41864 17.891 8.73378 18.1161 9.07142 18.3187ZM7.22562 22.8431C7.22562 22.8657 7.20312 22.8657 7.20312 22.8882C6.30273 24.5539 5.83002 26.4447 5.83002 28.3805V34.0755C5.83002 34.0755 5.83002 34.098 5.83002 34.1205C5.83002 34.1205 5.83002 34.143 5.83002 34.1881V42.044V49.5622C5.64994 49.6297 5.46986 49.6973 5.26727 49.7423C5.15472 49.7648 5.01967 49.7423 4.92963 49.6748C4.83959 49.6072 4.77207 49.4722 4.77207 49.3596V28.4256C4.77207 24.5989 6.46029 21.0199 9.43158 18.5663C9.76922 18.7464 10.1294 18.9264 10.4895 19.084C9.11644 20.0744 8.01346 21.3575 7.22562 22.8431ZM6.21268 42.6967C6.50531 43.1695 6.82045 43.5971 7.1581 44.0023C8.12602 45.1728 8.26107 46.816 7.45072 48.1216C7.13558 48.6168 6.7079 49.0445 6.19018 49.3371V42.6967H6.21268ZM24.1079 15.7976C28.7224 18.2737 31.5812 23.0232 31.5812 28.268V49.4272C31.5362 50.26 30.8383 50.9353 30.0055 50.9353C29.8479 50.9128 29.6904 50.8903 29.5328 50.8678C29.0601 50.7777 28.5874 50.5977 28.1597 50.3501C27.4619 49.9674 26.8766 49.4047 26.449 48.7069C25.391 46.9961 25.5486 44.7901 26.8541 43.237C27.5744 42.3816 28.1822 41.3687 28.6999 40.2432V41.9314C28.3173 42.5842 27.8896 43.192 27.4394 43.7322C26.3589 45.0378 26.2238 46.861 27.1017 48.3017C27.642 49.1795 28.5424 49.8323 29.5553 50.0574C29.6228 50.0799 29.6903 50.0799 29.7354 50.0799C29.9154 50.0799 30.0955 50.0124 30.2306 49.8999C30.4332 49.7423 30.5232 49.5172 30.5232 49.2696V28.3355C30.5232 23.4284 27.7095 18.8364 23.3426 16.5854C23.5902 16.3603 23.8603 16.0902 24.1079 15.7976ZM27.4169 48.1216C26.629 46.8385 26.7416 45.1728 27.7095 44.0023C28.0471 43.5971 28.3623 43.1469 28.6549 42.6967V49.3371C28.1597 49.0445 27.732 48.6393 27.4169 48.1216ZM23.0275 16.9231C27.3493 19.084 30.118 23.586 30.118 28.3805V49.3146C30.118 49.4497 30.0505 49.5622 29.9605 49.6297C29.8704 49.6973 29.7354 49.7423 29.6228 49.6973C29.4202 49.6523 29.2402 49.5847 29.0601 49.5172V41.9989V39.2978V34.143C29.0601 34.1205 29.0601 34.098 29.0601 34.0755C29.0601 34.053 29.0601 34.053 29.0601 34.0305V28.3355C29.0601 23.7661 26.2914 19.5117 22.1271 17.6209C22.4422 17.4183 22.7348 17.1707 23.0275 16.9231ZM28.6774 39.2753C28.1147 40.7384 27.3944 41.9989 26.539 43.0344C25.1434 44.7226 24.9633 47.0861 26.1113 48.9545C26.5615 49.6973 27.2143 50.305 27.9571 50.7327C28.4298 51.0028 28.925 51.1829 29.4427 51.273C29.6228 51.318 29.8029 51.3405 29.983 51.3405H30.0055C31.0634 51.3405 31.9413 50.5076 31.9863 49.4497C31.9863 49.4047 31.9863 49.3821 31.9863 49.3371C31.9863 49.3146 31.9863 49.2696 31.9863 49.2471V28.268C31.9863 22.9107 29.0826 18.0261 24.3781 15.4825C24.6031 15.1898 24.8057 14.8972 25.0083 14.6046C26.2689 15.3024 27.4619 16.1803 28.4973 17.2382C31.4461 20.187 33.0668 24.1037 33.0668 28.268V49.5172C33.0668 50.215 32.7967 50.8678 32.3015 51.363C31.8063 51.8582 31.1535 52.1283 30.4557 52.1283C28.4298 52.1283 26.539 51.0704 25.481 49.3371C24.1755 47.1987 24.3555 44.475 25.9762 42.5392C27.5294 40.6709 28.3173 38.3524 28.6999 36.6191V39.2753H28.6774ZM4.45693 53.2763C3.37646 53.2763 2.34101 52.8486 1.57568 52.0833C0.810351 51.318 0.382662 50.305 0.382662 49.2021V28.2455C0.382662 23.6985 2.16093 19.3992 5.37982 16.1803C5.5599 16.0002 5.7625 15.7976 5.96508 15.6175C6.19018 15.8876 6.43779 16.1578 6.6854 16.4054C6.50532 16.5629 6.32524 16.743 6.14516 16.9231C3.12885 19.9394 1.46313 23.9461 1.46313 28.223V49.5172C1.46313 50.3275 1.77826 51.0704 2.34101 51.6331C2.90375 52.1959 3.66909 52.511 4.45693 52.511C6.61786 52.511 8.64373 51.363 9.76922 49.5397C11.1648 47.2662 10.9622 44.34 9.2515 42.2916C6.64037 39.1402 6.2577 34.6833 6.21268 34.143V31.0817C6.37025 31.5994 6.61787 32.2522 6.91049 32.9725L6.9555 34.053C6.9555 34.098 7.22562 38.69 9.81424 41.7964C11.7276 44.1149 11.9752 47.3788 10.3995 49.9449C9.16147 52.0158 6.88798 53.2763 4.45693 53.2763ZM14.3612 51.8807C14.3387 51.8807 14.3387 51.8807 14.3162 51.8807C12.6505 51.8582 11.3449 50.0349 11.0748 49.6297C11.2324 49.2921 11.3899 48.977 11.5025 48.6168C11.9752 49.2696 13.1682 50.6427 15.4417 51.6331C15.059 51.7907 14.7214 51.8807 14.3612 51.8807ZM17.4451 55.3022L16.6347 53.3889L17.4451 52.421L18.2554 53.3889L17.4451 55.3022ZM17.4451 51.9032C17.0174 51.7907 16.6347 51.6781 16.2745 51.5431C16.6797 51.2279 17.0624 50.8002 17.4451 50.26C17.8277 50.8002 18.2104 51.2054 18.6156 51.5431C18.2554 51.6781 17.8727 51.7907 17.4451 51.9032ZM20.5964 51.8807C20.2138 51.8807 19.8536 51.7907 19.4934 51.6331C21.7444 50.6652 22.9599 49.2921 23.4326 48.6393C23.5452 48.977 23.6803 49.3146 23.8603 49.6522C23.5452 50.0574 22.2396 51.8582 20.5964 51.8807ZM34.4849 49.2246C34.4849 50.305 34.0572 51.3405 33.2919 52.1058C32.5266 52.8711 31.5136 53.2988 30.4107 53.2988C28.0021 53.2988 25.7061 52.0158 24.4456 49.9674C24.1079 49.4046 23.8378 48.8194 23.6803 48.1891C23.6803 48.1441 23.6802 48.0991 23.6577 48.0766C23.095 45.9381 23.5677 43.5971 25.0533 41.8189C27.642 38.7125 27.9121 34.1205 27.9121 34.0755L27.9571 33.0401C28.2722 32.3197 28.4973 31.667 28.6549 31.1492V34.1655C28.6099 34.7058 28.2272 39.1852 25.6161 42.3141C23.9053 44.385 23.7028 47.2887 25.0984 49.5622C26.2239 51.3855 28.2497 52.5335 30.4107 52.5335C31.221 52.5335 31.9638 52.2184 32.5266 51.6556C33.0893 51.0929 33.4045 50.3275 33.4045 49.5397V28.2905C33.4045 24.0137 31.7387 20.0069 28.7224 16.9906C27.6645 15.9327 26.4715 15.0323 25.1659 14.3119C25.346 14.0193 25.526 13.7042 25.6836 13.3665C27.0567 14.1319 28.3398 15.0998 29.4878 16.2253C32.7067 19.4442 34.4849 23.721 34.4849 28.2905V49.2246Z" fill="#FDF2DB"/>
<path d="M18.5704 3.82237C19.2007 3.82237 19.7184 4.49767 19.7184 5.33053C19.7184 5.44308 19.8084 5.53311 19.921 5.53311C20.0335 5.53311 20.1236 5.44308 20.1236 5.33053C20.1236 4.49767 20.6413 3.82237 21.2716 3.82237C21.3841 3.82237 21.4741 3.73233 21.4741 3.61978C21.4741 3.50723 21.3841 3.4172 21.2716 3.4172C20.6413 3.4172 20.1236 2.74191 20.1236 1.90904C20.1236 1.7965 20.0335 1.70645 19.921 1.70645C19.8084 1.70645 19.7184 1.7965 19.7184 1.90904C19.7184 2.74191 19.2007 3.4172 18.5704 3.4172C18.4578 3.4172 18.3678 3.50723 18.3678 3.61978C18.3678 3.73233 18.4578 3.82237 18.5704 3.82237ZM19.8985 2.85446C20.056 3.1921 20.2811 3.46221 20.5512 3.61978C20.2811 3.79986 20.0335 4.06998 19.8985 4.38512C19.7409 4.04747 19.5158 3.77735 19.2457 3.61978C19.5158 3.46221 19.7409 3.1921 19.8985 2.85446Z" fill="#FDF2DB"/>
<path d="M14.8115 11.8809C15.3067 11.8809 15.7119 12.4212 15.7119 13.074C15.7119 13.1865 15.8019 13.2766 15.9145 13.2766C16.027 13.2766 16.117 13.1865 16.117 13.074C16.117 12.4212 16.5222 11.8809 17.0174 11.8809C17.13 11.8809 17.22 11.7909 17.22 11.6784C17.22 11.5658 17.13 11.4758 17.0174 11.4758C16.5222 11.4758 16.117 10.9355 16.117 10.2828C16.117 10.1702 16.027 10.0802 15.9145 10.0802C15.8019 10.0802 15.7119 10.1702 15.7119 10.2828C15.7119 10.9355 15.3067 11.4758 14.8115 11.4758C14.6989 11.4758 14.6089 11.5658 14.6089 11.6784C14.6089 11.7909 14.6989 11.8809 14.8115 11.8809ZM15.9145 11.1156C16.027 11.3407 16.2071 11.5433 16.3872 11.6784C16.1846 11.8134 16.027 11.9935 15.9145 12.2411C15.8019 12.016 15.6218 11.8134 15.4418 11.6784C15.6218 11.5433 15.7794 11.3632 15.9145 11.1156Z" fill="#FDF2DB"/>
<path d="M7.38326 6.5461C8.26114 6.5461 8.95894 7.46901 8.95894 8.5945C8.95894 8.70704 9.04898 8.79708 9.16153 8.79708C9.27408 8.79708 9.36411 8.70704 9.36411 8.5945C9.36411 7.46901 10.0619 6.5461 10.9398 6.5461C11.0523 6.5461 11.1424 6.45607 11.1424 6.34352C11.1424 6.23097 11.0523 6.14093 10.9398 6.14093C10.0619 6.14093 9.36411 5.21803 9.36411 4.09255C9.36411 3.98 9.27408 3.88995 9.16153 3.88995C9.04898 3.88995 8.95894 3.98 8.95894 4.09255C8.95894 5.21803 8.26114 6.14093 7.38326 6.14093C7.27071 6.14093 7.18066 6.23097 7.18066 6.34352C7.18066 6.45607 7.29322 6.5461 7.38326 6.5461ZM9.16153 5.17301C9.36412 5.71325 9.72428 6.14093 10.1745 6.36603C9.72428 6.59112 9.38663 7.01881 9.16153 7.55904C8.95895 7.01881 8.59879 6.59112 8.14859 6.36603C8.59879 6.11842 8.95895 5.69074 9.16153 5.17301Z" fill="#FDF2DB"/>
<path d="M49.7464 15.4374C54.5185 15.4374 57.895 15.8651 57.895 19.9843C57.895 22.5505 55.1713 24.2837 51.6147 24.2837C51.007 24.2837 50.3767 24.2387 49.7239 24.1261V31.0141H47.6755V15.4599H49.7464V15.4374ZM49.7464 23.5634C50.1741 23.6534 50.6243 23.6985 51.0295 23.6985C53.5281 23.6985 55.8466 22.3029 55.8466 19.4666C55.8466 15.7525 53.0329 15.9551 49.7239 15.9551V23.5634H49.7464Z" fill="#FDF2DB"/>
<path d="M66.7187 15.4376V25.9496C66.7187 29.8663 68.8797 30.7667 70.5904 30.7667C72.6838 30.7667 75.2274 29.8663 75.2274 25.5895V15.4376H75.7451V25.4995C75.7451 29.9789 73.224 31.307 70.1177 31.307C67.8892 31.307 64.6478 30.6542 64.6478 25.5445V15.4376H66.7187Z" fill="#FDF2DB"/>
<path d="M82.9934 15.4376H85.2669C90.0389 15.4376 93.2353 15.6402 93.2353 19.7595C93.2353 21.6728 92.0873 22.8208 89.8589 23.406L94.4508 31.0143H92.0198L87.6529 23.8112C86.9101 23.8787 85.8971 23.9013 85.0193 23.9013V31.0143H82.9484V15.4376H82.9934ZM85.0643 23.361C88.8684 23.361 91.1869 22.7758 91.1869 19.4668C91.1869 15.7527 88.3732 15.9553 85.0643 15.9553V23.361Z" fill="#FDF2DB"/>
<path d="M102.127 15.9328V22.5957H107.394V23.1134H102.127V30.4741H103.86C106.043 30.4741 107.754 29.8663 109.172 28.5158V30.9918H100.056V15.4376H109.15V17.9137C107.731 16.5631 106.021 15.9553 103.837 15.9553H102.127V15.9328Z" fill="#FDF2DB"/>
<path d="M127.09 15.4376H131.164C134.878 15.4376 137.129 16.4055 137.129 18.9941C137.129 20.6599 136.274 21.6953 133.64 22.2581C136.859 22.7308 138.052 24.5315 138.052 26.3998C138.052 29.6638 134.496 30.9918 131.84 30.9918H127.112V15.4376H127.09ZM131.164 22.3256C134.451 22.3256 135.058 20.7949 135.058 19.2642C135.058 16.4955 132.695 15.9553 130.714 15.9553H129.161V22.3256H131.164ZM129.161 22.8208V30.4741H131.84C134.203 30.4741 135.981 28.9659 135.981 26.5799C135.981 24.6441 134.698 22.8208 131.93 22.8208H129.161Z" fill="#FDF2DB"/>
<path d="M146.628 15.9328V22.5957H151.896V23.1134H146.628V30.4741H148.362C150.545 30.4741 152.256 29.8663 153.674 28.5158V30.9918H144.557V15.4376H153.651V17.9137C152.233 16.5631 150.522 15.9553 148.339 15.9553H146.628V15.9328Z" fill="#FDF2DB"/>
<path d="M166.234 15.4376H167.27L173.618 30.9693H171.119L169.543 27.0751H162.16L160.63 30.9693H160.157L166.234 15.4376ZM162.34 26.6249H169.363L165.784 17.8236L162.34 26.6249Z" fill="#FDF2DB"/>
<path d="M181.226 15.4376V25.9496C181.226 29.8663 183.387 30.7667 185.098 30.7667C187.191 30.7667 189.735 29.8663 189.735 25.5895V15.4376H190.252V25.4995C190.252 29.9789 187.731 31.307 184.625 31.307C182.396 31.307 179.155 30.6542 179.155 25.5445V15.4376H181.226Z" fill="#FDF2DB"/>
<path d="M209.16 15.4376V17.9137C207.81 16.6306 206.167 16.0003 204.118 15.9553V31.0143H202.047V15.9553C199.999 16.0003 198.356 16.6306 197.005 17.9137V15.4376H209.16Z" fill="#FDF2DB"/>
<path d="M215.171 15.4376H217.557L222.261 23.7212L226.741 15.4376H227.326L222.441 24.554V30.9918H220.37V24.5991L215.171 15.4376Z" fill="#FDF2DB"/>
<path d="M95.3511 44.7677C95.7338 44.9928 96.274 45.1954 96.8593 45.1954C97.7147 45.1954 98.2099 44.7452 98.2099 44.0924C98.2099 43.4847 97.8722 43.147 96.9943 42.8094C95.9364 42.4267 95.2836 41.8865 95.2836 40.9636C95.2836 39.9506 96.1165 39.2078 97.377 39.2078C98.0523 39.2078 98.525 39.3654 98.8176 39.523L98.5925 40.1982C98.39 40.0857 97.9398 39.8831 97.3545 39.8831C96.4766 39.8831 96.139 40.4233 96.139 40.851C96.139 41.4588 96.5442 41.7514 97.422 42.1116C98.525 42.5393 99.0878 43.057 99.0878 44.0249C99.0878 45.0378 98.3449 45.8932 96.8143 45.8932C96.184 45.8932 95.5087 45.7131 95.1486 45.488L95.3511 44.7677Z" fill="#FDF2DB"/>
<path d="M105.053 39.2753H105.886V42.4042H105.908C106.088 42.1566 106.246 41.9315 106.426 41.7064L108.407 39.2753H109.442L107.101 42.044L109.645 45.7807H108.655L106.516 42.5843L105.908 43.3046V45.7807H105.075V39.2753H105.053Z" fill="#FDF2DB"/>
<path d="M115.925 39.2753V45.7807H115.092V39.2753H115.925Z" fill="#FDF2DB"/>
<path d="M122.206 45.7807V39.2753H123.128L125.222 42.5617C125.695 43.3271 126.077 44.0024 126.392 44.6777H126.415C126.347 43.7998 126.325 43.0119 126.325 41.999V39.2753H127.113V45.7807H126.257L124.186 42.4942C123.736 41.7739 123.309 41.0311 122.971 40.3333H122.948C122.993 41.1436 123.016 41.9315 123.016 43.0119V45.7807H122.206Z" fill="#FDF2DB"/>
<path d="M144.782 45.5782C144.467 45.7357 143.859 45.8933 143.072 45.8933C141.248 45.8933 139.853 44.7453 139.853 42.6069C139.853 40.581 141.226 39.1854 143.252 39.1854C144.062 39.1854 144.58 39.3655 144.805 39.478L144.602 40.1533C144.287 39.9958 143.837 39.8832 143.297 39.8832C141.766 39.8832 140.753 40.8511 140.753 42.5619C140.753 44.16 141.676 45.173 143.252 45.173C143.769 45.173 144.287 45.0604 144.625 44.9029L144.782 45.5782Z" fill="#FDF2DB"/>
<path d="M151.738 43.7323L151.063 45.7807H150.185L152.391 39.2753H153.404L155.632 45.7807H154.732L154.034 43.7323H151.738ZM153.877 43.0795L153.246 41.2112C153.111 40.7835 152.999 40.4008 152.909 40.0181H152.886C152.796 40.4008 152.684 40.806 152.549 41.1887L151.918 43.0795H153.877Z" fill="#FDF2DB"/>
<path d="M161.417 39.3655C161.845 39.2754 162.453 39.2304 163.038 39.2304C163.939 39.2304 164.524 39.388 164.929 39.7706C165.267 40.0633 165.447 40.5135 165.447 41.0087C165.447 41.8641 164.906 42.4268 164.231 42.6744V42.6969C164.726 42.877 165.042 43.3272 165.177 44.0025C165.379 44.9029 165.537 45.5331 165.672 45.7808H164.794C164.681 45.6007 164.546 45.0379 164.366 44.2276C164.164 43.3272 163.826 42.9895 163.061 42.967H162.273V45.7808H161.44V39.3655H161.417ZM162.25 42.3368H163.106C164.006 42.3368 164.569 41.8415 164.569 41.0987C164.569 40.2659 163.961 39.8832 163.083 39.8832C162.678 39.8832 162.385 39.9282 162.25 39.9507V42.3368Z" fill="#FDF2DB"/>
<path d="M174.788 42.7418H172.267V45.0828H175.081V45.7807H171.434V39.2753H174.946V39.9731H172.267V42.0215H174.788V42.7418Z" fill="#FDF2DB"/>
</svg>
