<svg width="24" height="24" viewBox="0 0 24 24" fill="none" xmlns="http://www.w3.org/2000/svg">
<path fill-rule="evenodd" clip-rule="evenodd" d="M8.82023 5.039C9.51336 5.00709 9.73436 5 11.5 5C13.2656 5 13.4866 5.00768 14.1792 5.039C14.8717 5.07032 15.3445 5.18082 15.7581 5.34095C16.1912 5.50464 16.5842 5.7605 16.9092 6.09141C17.2401 6.41582 17.4954 6.80818 17.6585 7.24191C17.8192 7.65555 17.9291 8.12827 17.961 8.81964C17.9929 9.51395 18 9.73495 18 11.5C18 13.2656 17.9923 13.4866 17.961 14.1798C17.9297 14.8711 17.8192 15.3439 17.6585 15.7575C17.4954 16.1913 17.2397 16.5843 16.9092 16.9092C16.5842 17.2401 16.1912 17.4954 15.7581 17.6585C15.3445 17.8192 14.8717 17.9291 14.1804 17.961C13.4866 17.9929 13.2656 18 11.5 18C9.73436 18 9.51336 17.9923 8.82023 17.961C8.12886 17.9297 7.65614 17.8192 7.2425 17.6585C6.80873 17.4953 6.41571 17.2397 6.09082 16.9092C5.76013 16.5846 5.50423 16.1918 5.34095 15.7581C5.18082 15.3445 5.07091 14.8717 5.039 14.1804C5.00709 13.486 5 13.265 5 11.5C5 9.73436 5.00768 9.51336 5.039 8.82082C5.07032 8.12827 5.18082 7.65555 5.34095 7.24191C5.50447 6.80823 5.76057 6.41541 6.09141 6.09082C6.41584 5.76021 6.80846 5.50431 7.24191 5.34095C7.65555 5.18082 8.12886 5.07091 8.82023 5.039ZM14.1266 6.209C13.4411 6.17768 13.2355 6.17118 11.5 6.17118C9.7645 6.17118 9.55886 6.17768 8.87341 6.209C8.23936 6.23795 7.89545 6.34373 7.66618 6.43295C7.36305 6.55114 7.14618 6.69118 6.91868 6.91868C6.70303 7.12849 6.53706 7.38389 6.43295 7.66618C6.34373 7.89545 6.23795 8.23936 6.209 8.87341C6.17768 9.55886 6.17118 9.7645 6.17118 11.5C6.17118 13.2355 6.17768 13.4411 6.209 14.1266C6.23795 14.7606 6.34373 15.1045 6.43295 15.3338C6.53695 15.6157 6.703 15.8715 6.91868 16.0813C7.12845 16.297 7.38432 16.463 7.66618 16.567C7.89545 16.6563 8.23936 16.762 8.87341 16.791C9.55886 16.8223 9.76391 16.8288 11.5 16.8288C13.2361 16.8288 13.4411 16.8223 14.1266 16.791C14.7606 16.762 15.1045 16.6563 15.3338 16.567C15.637 16.4489 15.8538 16.3088 16.0813 16.0813C16.297 15.8715 16.463 15.6157 16.567 15.3338C16.6563 15.1045 16.762 14.7606 16.791 14.1266C16.8223 13.4411 16.8288 13.2355 16.8288 11.5C16.8288 9.7645 16.8223 9.55886 16.791 8.87341C16.762 8.23936 16.6563 7.89545 16.567 7.66618C16.4489 7.36305 16.3088 7.14618 16.0813 6.91868C15.8715 6.70304 15.6161 6.53708 15.3338 6.43295C15.1045 6.34373 14.7606 6.23795 14.1266 6.209ZM10.6698 13.5038C11.1334 13.6968 11.6497 13.7228 12.1305 13.5775C12.6112 13.4321 13.0265 13.1244 13.3056 12.7068C13.5846 12.2892 13.71 11.7877 13.6604 11.2879C13.6108 10.7882 13.3891 10.3211 13.0334 9.96659C12.8066 9.73996 12.5324 9.56643 12.2306 9.4585C11.9287 9.35056 11.6066 9.31089 11.2876 9.34236C10.9685 9.37383 10.6604 9.47565 10.3854 9.64049C10.1105 9.80532 9.87544 10.0291 9.69732 10.2956C9.51919 10.5622 9.40238 10.8649 9.3553 11.1821C9.30823 11.4992 9.33204 11.8228 9.42505 12.1296C9.51805 12.4364 9.67792 12.7188 9.89315 12.9564C10.1084 13.194 10.3736 13.381 10.6698 13.5038ZM9.13755 9.13755C9.44779 8.8273 9.8161 8.58121 10.2214 8.4133C10.6268 8.2454 11.0613 8.15898 11.5 8.15898C11.9387 8.15898 12.3732 8.2454 12.7786 8.4133C13.1839 8.58121 13.5522 8.8273 13.8625 9.13755C14.1727 9.44779 14.4188 9.8161 14.5867 10.2214C14.7546 10.6268 14.841 11.0613 14.841 11.5C14.841 11.9387 14.7546 12.3732 14.5867 12.7786C14.4188 13.1839 14.1727 13.5522 13.8625 13.8625C13.2359 14.489 12.3861 14.841 11.5 14.841C10.6139 14.841 9.76411 14.489 9.13755 13.8625C8.51098 13.2359 8.15898 12.3861 8.15898 11.5C8.15898 10.6139 8.51098 9.76411 9.13755 9.13755ZM15.582 8.65655C15.6589 8.58402 15.7204 8.49681 15.763 8.40008C15.8056 8.30334 15.8283 8.19905 15.8298 8.09337C15.8314 7.98769 15.8117 7.88278 15.772 7.78484C15.7322 7.68691 15.6733 7.59794 15.5985 7.5232C15.5238 7.44847 15.4348 7.38949 15.3369 7.34976C15.2389 7.31003 15.134 7.29035 15.0284 7.29189C14.9227 7.29343 14.8184 7.31616 14.7217 7.35873C14.6249 7.4013 14.5377 7.46285 14.4652 7.53973C14.3241 7.68924 14.2469 7.88784 14.2499 8.09337C14.2529 8.29889 14.3359 8.49516 14.4812 8.6405C14.6266 8.78584 14.8228 8.86882 15.0284 8.87181C15.2339 8.87481 15.4325 8.79759 15.582 8.65655Z" fill="#FDF2DB"/>
</svg>
