<svg width="18" height="18" viewBox="0 0 18 18" fill="none" xmlns="http://www.w3.org/2000/svg">
<path d="M9 2.4875C9.13592 2.4875 9.26628 2.5415 9.36239 2.63761C9.4585 2.73372 9.5125 2.86408 9.5125 3C9.5125 3.13592 9.4585 3.26628 9.36239 3.36239C9.26628 3.4585 9.13592 3.5125 9 3.5125C7.54462 3.5125 6.14886 4.09065 5.11975 5.11975C4.09065 6.14886 3.5125 7.54462 3.5125 9C3.5125 10.4554 4.09065 11.8511 5.11975 12.8802C6.14886 13.9094 7.54462 14.4875 9 14.4875C9.13592 14.4875 9.26628 14.5415 9.36239 14.6376C9.4585 14.7337 9.5125 14.8641 9.5125 15C9.5125 15.1359 9.4585 15.2663 9.36239 15.3624C9.26628 15.4585 9.13592 15.5125 9 15.5125C7.27278 15.5125 5.6163 14.8264 4.39497 13.605C3.17364 12.3837 2.4875 10.7272 2.4875 9C2.4875 7.27278 3.17364 5.6163 4.39497 4.39497C5.6163 3.17364 7.27278 2.4875 9 2.4875Z" fill="#842A3A" stroke="#FDF2DB" stroke-width="0.1"/>
<path d="M13.1121 11.6122L13.1121 11.6121L13.1109 11.6134C13.064 11.6638 13.0074 11.7042 12.9446 11.7322C12.8817 11.7602 12.8138 11.7752 12.745 11.7765C12.6762 11.7777 12.6078 11.765 12.544 11.7392C12.4802 11.7135 12.4222 11.6751 12.3736 11.6264C12.3249 11.5778 12.2865 11.5198 12.2608 11.456C12.235 11.3922 12.2223 11.3238 12.2235 11.255C12.2248 11.1862 12.2398 11.1183 12.2678 11.0555C12.2958 10.9926 12.3362 10.936 12.3866 10.8891L12.3866 10.8891L12.3879 10.8879L13.6779 9.59786L13.7632 9.51251H13.6425H7.5C7.36408 9.51251 7.23372 9.45851 7.13761 9.3624C7.0415 9.26629 6.9875 9.13593 6.9875 9.00001C6.9875 8.86408 7.0415 8.73373 7.13761 8.63762C7.23372 8.5415 7.36408 8.48751 7.5 8.48751H13.6425H13.7632L13.6779 8.40215L12.3885 7.11279C12.2983 7.01571 12.2493 6.88748 12.2516 6.755C12.254 6.62223 12.3077 6.49555 12.4016 6.40165C12.4955 6.30775 12.6222 6.25396 12.755 6.25162C12.8875 6.24928 13.0157 6.29835 13.1128 6.3885L15.3621 8.63784C15.4581 8.73393 15.512 8.86419 15.512 9.00001C15.512 9.13582 15.4581 9.26608 15.3621 9.36217L13.1121 11.6122Z" fill="#842A3A" stroke="#FDF2DB" stroke-width="0.1"/>
</svg>
