<svg width="16" height="16" viewBox="0 0 16 16" fill="none" xmlns="http://www.w3.org/2000/svg">
<path d="M10.8125 6.875V3.5C10.8125 2.75408 10.5162 2.03871 9.98874 1.51126C9.4613 0.983816 8.74593 0.6875 8 0.6875C7.25408 0.6875 6.53871 0.983816 6.01127 1.51126C5.48382 2.03871 5.1875 2.75408 5.1875 3.5V6.875M13.7045 5.38025L14.6518 14.3802C14.7043 14.879 14.3143 15.3125 13.8125 15.3125H2.1875C2.06916 15.3126 1.95211 15.2879 1.84397 15.2398C1.73582 15.1917 1.63899 15.1215 1.55977 15.0336C1.48055 14.9456 1.42071 14.842 1.38414 14.7295C1.34757 14.6169 1.33509 14.4979 1.3475 14.3802L2.2955 5.38025C2.31737 5.17292 2.41522 4.98103 2.57019 4.84157C2.72516 4.70211 2.92627 4.62496 3.13475 4.625H12.8653C13.2973 4.625 13.6595 4.95125 13.7045 5.38025ZM5.46875 6.875C5.46875 6.94959 5.43912 7.02113 5.38638 7.07387C5.33363 7.12662 5.2621 7.15625 5.1875 7.15625C5.11291 7.15625 5.04137 7.12662 4.98863 7.07387C4.93589 7.02113 4.90625 6.94959 4.90625 6.875C4.90625 6.80041 4.93589 6.72887 4.98863 6.67613C5.04137 6.62338 5.11291 6.59375 5.1875 6.59375C5.2621 6.59375 5.33363 6.62338 5.38638 6.67613C5.43912 6.72887 5.46875 6.80041 5.46875 6.875ZM11.0938 6.875C11.0938 6.94959 11.0641 7.02113 11.0114 7.07387C10.9586 7.12662 10.8871 7.15625 10.8125 7.15625C10.7379 7.15625 10.6664 7.12662 10.6136 7.07387C10.5609 7.02113 10.5313 6.94959 10.5313 6.875C10.5313 6.80041 10.5609 6.72887 10.6136 6.67613C10.6664 6.62338 10.7379 6.59375 10.8125 6.59375C10.8871 6.59375 10.9586 6.62338 11.0114 6.67613C11.0641 6.72887 11.0938 6.80041 11.0938 6.875Z" stroke="#842A3A" stroke-linecap="round" stroke-linejoin="round"/>
</svg>
